<?xml version="1.0" standalone="no"?><!DOCTYPE svg PUBLIC "-//W3C//DTD SVG 1.1//EN" "http://www.w3.org/Graphics/SVG/1.1/DTD/svg11.dtd"><svg class="icon" width="200px" height="200.00px" viewBox="0 0 1024 1024" version="1.1" xmlns="http://www.w3.org/2000/svg"><path d="M549.463415 554.458537m-449.560976 0a449.560976 449.560976 0 1 0 899.121951 0 449.560976 449.560976 0 1 0-899.121951 0Z" fill="#E3EFFF" /><path d="M492.019512 19.980488C247.258537 19.980488 42.458537 209.795122 24.97561 452.058537c0 7.492683 4.995122 12.487805 11.239024 13.736585 6.243902 0 12.487805-4.995122 13.736586-11.239024C67.434146 224.780488 260.995122 44.956098 492.019512 44.956098 736.780488 44.956098 935.336585 243.512195 935.336585 487.02439s-199.804878 442.068293-443.317073 442.068293c-91.160976 0-178.57561-27.473171-253.502439-79.921951-6.243902-3.746341-13.736585-2.497561-17.482927 2.497561-3.746341 6.243902-2.497561 13.736585 2.497561 17.482927 78.673171 54.946341 171.082927 83.668293 267.239025 83.668292C749.268293 954.068293 959.063415 744.273171 959.063415 487.02439S749.268293 19.980488 492.019512 19.980488z" fill="#25232E" /><path d="M364.643902 539.473171c-7.492683 0-12.487805 4.995122-12.487804 12.487805s4.995122 12.487805 12.487804 12.487804h118.634147v118.634147c0 7.492683 4.995122 12.487805 12.487805 12.487805s12.487805-4.995122 12.487805-12.487805v-118.634147h118.634146c7.492683 0 12.487805-4.995122 12.487805-12.487804s-4.995122-12.487805-12.487805-12.487805h-118.634146v-106.146342h118.634146c7.492683 0 12.487805-4.995122 12.487805-12.487805s-4.995122-12.487805-12.487805-12.487804h-104.897561l88.663415-108.643903c3.746341-4.995122 3.746341-13.736585-1.248781-17.482927-4.995122-3.746341-13.736585-3.746341-17.482927 1.248781l-94.907317 117.385366-94.907317-117.385366c-3.746341-4.995122-12.487805-6.243902-17.482927-1.248781-4.995122 3.746341-6.243902 12.487805-1.24878 17.482927l88.663414 108.643903h-104.897561c-7.492683 0-12.487805 4.995122-12.487804 12.487804s4.995122 12.487805 12.487804 12.487805h118.634147v106.146342h-121.131708zM268.487805 645.619512c0-1.24878 0-1.24878 0 0v-2.497561c0-2.497561-1.24878-4.995122-2.497561-7.492683l-67.434146-76.175609c-4.995122-4.995122-12.487805-6.243902-17.482927-1.248781-4.995122 4.995122-6.243902 12.487805-1.248781 17.482927l46.204878 52.44878h-187.317073c-7.492683 0-12.487805 4.995122-12.487805 12.487805s4.995122 12.487805 12.487805 12.487805h193.560976l-52.448781 59.941464c-4.995122 4.995122-3.746341 12.487805 1.248781 17.482926 2.497561 2.497561 4.995122 2.497561 8.741463 2.497561 3.746341 0 7.492683-1.24878 9.990244-3.746341l67.434146-77.42439c0-1.24878 1.24878-3.746341 1.248781-6.243903z" fill="#25232E" /></svg>