<?xml version="1.0" standalone="no"?><!DOCTYPE svg PUBLIC "-//W3C//DTD SVG 1.1//EN" "http://www.w3.org/Graphics/SVG/1.1/DTD/svg11.dtd"><svg class="icon" width="200px" height="200.00px" viewBox="0 0 1024 1024" version="1.1" xmlns="http://www.w3.org/2000/svg"><path d="M819.2 1006.517073H288.468293c-64.936585 0-117.385366-53.697561-117.385366-119.882927V289.717073c0-66.185366 52.44878-119.882927 117.385366-119.882927h530.731707c64.936585 0 117.385366 53.697561 117.385366 119.882927V886.634146c0 67.434146-52.44878 119.882927-117.385366 119.882927z" fill="#E3EFFF" /><path d="M708.058537 445.814634h-424.585366c-7.492683 0-12.487805 4.995122-12.487805 12.487805s4.995122 12.487805 12.487805 12.487805h424.585366c7.492683 0 12.487805-4.995122 12.487804-12.487805s-6.243902-12.487805-12.487804-12.487805zM708.058537 644.370732h-424.585366c-7.492683 0-12.487805 4.995122-12.487805 12.487805s4.995122 12.487805 12.487805 12.487804h424.585366c7.492683 0 12.487805-4.995122 12.487804-12.487804s-6.243902-12.487805-12.487804-12.487805z" fill="#25232E" /><path d="M805.463415 67.434146h-149.853659v-49.951219c0-7.492683-4.995122-12.487805-12.487805-12.487805s-12.487805 4.995122-12.487805 12.487805v49.951219h-237.268292v-49.951219c0-7.492683-4.995122-12.487805-12.487805-12.487805s-12.487805 4.995122-12.487805 12.487805v49.951219h-149.853659C138.614634 67.434146 74.926829 132.370732 74.926829 212.292683v660.604878c0 79.921951 63.687805 144.858537 143.609756 144.858537h588.17561c78.673171 0 143.609756-64.936585 143.609756-144.858537V212.292683C949.073171 132.370732 885.385366 67.434146 805.463415 67.434146zM924.097561 872.897561c0 66.185366-52.44878 119.882927-118.634146 119.882927h-586.92683c-64.936585 0-118.634146-53.697561-118.634146-119.882927V212.292683c0-66.185366 52.44878-119.882927 118.634146-119.882927h151.102439V149.853659c0 7.492683 4.995122 12.487805 12.487805 12.487804s12.487805-4.995122 12.487805-12.487804V92.409756h236.019512V149.853659c0 7.492683 4.995122 12.487805 12.487805 12.487804s12.487805-4.995122 12.487805-12.487804V92.409756h151.102439c64.936585 0 118.634146 53.697561 118.634146 119.882927v660.604878z" fill="#25232E" /></svg>