<?xml version="1.0" standalone="no"?><!DOCTYPE svg PUBLIC "-//W3C//DTD SVG 1.1//EN" "http://www.w3.org/Graphics/SVG/1.1/DTD/svg11.dtd"><svg class="icon" width="200px" height="200.00px" viewBox="0 0 1024 1024" version="1.1" xmlns="http://www.w3.org/2000/svg"><path d="M575.687805 209.795122h264.741463c67.434146 0 122.380488 53.697561 122.380488 121.131707v556.956098c0 66.185366-54.946341 121.131707-122.380488 121.131707h-549.463414c-67.434146 0-122.380488-53.697561-122.380488-121.131707V330.926829c0-66.185366 54.946341-121.131707 122.380488-121.131707H424.585366" fill="#E3EFFF" /><path d="M822.946341 91.160976H544.468293l72.429268-67.434147c4.995122-4.995122 4.995122-12.487805 1.24878-17.482927-4.995122-4.995122-12.487805-4.995122-17.482926-1.24878l-92.409756 84.917073c-2.497561 2.497561-3.746341 6.243902-3.746342 9.990244 0 3.746341 1.24878 7.492683 3.746342 9.990244l92.409756 84.917073c2.497561 2.497561 4.995122 3.746341 8.741463 3.746342 3.746341 0 6.243902-1.24878 8.741463-3.746342 4.995122-4.995122 4.995122-12.487805-1.24878-17.482927l-66.185366-61.190244H824.195122c69.931707 0 126.126829 56.195122 126.126829 124.878049v631.882927c0 68.682927-56.195122 124.878049-126.126829 124.878049H201.053659c-69.931707 0-126.126829-56.195122-126.12683-124.878049V241.014634c0-68.682927 56.195122-124.878049 126.12683-124.878049h152.351219c7.492683 0 12.487805-4.995122 12.487805-12.487805s-4.995122-12.487805-12.487805-12.487804H201.053659C117.385366 91.160976 49.95122 157.346341 49.95122 241.014634v631.882927c0 82.419512 67.434146 149.853659 151.102439 149.853659h621.892682c83.668293 0 151.102439-67.434146 151.102439-149.853659V241.014634c0-83.668293-67.434146-149.853659-151.102439-149.853658z" fill="#25232E" /><path d="M359.64878 484.526829c0 7.492683 4.995122 12.487805 12.487805 12.487805H499.512195v113.639025H372.136585c-7.492683 0-12.487805 4.995122-12.487805 12.487804s4.995122 12.487805 12.487805 12.487805H499.512195V761.756098c0 7.492683 4.995122 12.487805 12.487805 12.487804s12.487805-4.995122 12.487805-12.487804V634.380488h127.37561c7.492683 0 12.487805-4.995122 12.487805-12.487805s-4.995122-12.487805-12.487805-12.487805H524.487805v-113.639024h127.37561c7.492683 0 12.487805-4.995122 12.487805-12.487805s-4.995122-12.487805-12.487805-12.487805h-113.639025l94.907317-116.136585c3.746341-4.995122 3.746341-13.736585-1.24878-17.482927-4.995122-3.746341-13.736585-3.746341-17.482927 1.24878l-102.4 124.878049-102.4-124.878049c-4.995122-4.995122-12.487805-6.243902-17.482927-1.24878-4.995122 3.746341-6.243902 12.487805-1.24878 17.482927l94.907317 116.136585h-113.639025c-7.492683 1.24878-12.487805 6.243902-12.487805 13.736585z" fill="#25232E" /></svg>