<?xml version="1.0" standalone="no"?><!DOCTYPE svg PUBLIC "-//W3C//DTD SVG 1.1//EN" "http://www.w3.org/Graphics/SVG/1.1/DTD/svg11.dtd"><svg class="icon" width="200px" height="200.00px" viewBox="0 0 1024 1024" version="1.1" xmlns="http://www.w3.org/2000/svg"><path d="M693.073171 892.878049c-16.234146-9.990244-36.214634-9.990244-51.2 0l-96.156098 62.439024c-16.234146 9.990244-36.214634 9.990244-52.44878-1.24878l-102.4-69.931708c-17.482927-11.239024-38.712195-9.990244-54.946342 1.248781l-99.902439 71.180488c-9.990244 7.492683-36.214634 8.741463-36.214634 8.741463s3.746341-41.209756 3.746342-92.409756V262.243902c0-68.682927 54.946341-123.629268 121.131707-123.629268l497.014634 1.248781c67.434146 0 121.131707 54.946341 121.131707 123.629268V874.146341c0 51.2-41.209756 92.409756-91.160975 92.409757H836.682927s-23.726829 0-33.717073-6.243903l-109.892683-67.434146z" fill="#E3EFFF" /><path d="M840.429268 979.043902H824.195122c-4.995122 0-27.473171-1.24878-39.960976-8.741463l-107.395122-66.185366c-11.239024-7.492683-26.22439-7.492683-37.463414 0l-94.907317 61.190244c-19.980488 12.487805-46.204878 12.487805-64.936586-1.24878l-101.151219-68.682927c-11.239024-7.492683-28.721951-7.492683-39.960976 1.24878l-98.653658 69.931708c-12.487805 8.741463-37.463415 9.990244-42.458537 11.239024h-14.985366c-56.195122 0-101.15122-46.204878-101.151219-103.648781V177.326829c0-36.214634 13.736585-69.931707 38.712195-94.907317s58.692683-38.712195 93.658536-38.712195l598.165854 1.248781c72.429268 0 132.370732 59.941463 132.370732 133.619512v696.819512c-1.24878 57.443902-47.453659 103.64878-103.648781 103.64878z m-182.321951-103.64878c11.239024 0 22.478049 2.497561 32.468293 8.741463l107.395122 66.185366c3.746341 2.497561 17.482927 4.995122 27.47317 4.995122h14.985366v12.487805-12.487805c42.458537 0 77.42439-34.965854 77.424391-78.673171V178.57561c0-59.941463-47.453659-108.643902-107.395122-108.643903H213.541463c-28.721951 0-54.946341 11.239024-76.175609 31.219513-19.980488 21.229268-31.219512 48.702439-31.219513 77.42439v696.819512c0 42.458537 34.965854 78.673171 76.17561 78.673171h14.985366c9.990244 0 23.726829-2.497561 28.721951-6.243903l98.653659-69.931707c19.980488-13.736585 47.453659-14.985366 68.682927-1.248781l101.151219 68.682927c11.239024 7.492683 26.22439 7.492683 37.463415 0l94.907317-61.190244c9.990244-6.243902 19.980488-8.741463 31.219512-8.741463z" fill="#25232E" /><path d="M640.62439 554.458537h-109.892683v-99.902439h109.892683c7.492683 0 12.487805-4.995122 12.487805-12.487805s-4.995122-12.487805-12.487805-12.487805h-96.156097l81.170731-102.4c3.746341-4.995122 3.746341-13.736585-2.497561-17.482927s-13.736585-3.746341-17.482926 2.497561l-88.663415 109.892683-87.414634-109.892683c-3.746341-4.995122-12.487805-6.243902-17.482927-2.497561-4.995122 3.746341-6.243902 12.487805-2.497561 17.482927l81.170732 102.4h-96.156098c-7.492683 0-12.487805 4.995122-12.487805 12.487805s4.995122 12.487805 12.487805 12.487805h109.892683v99.902439h-109.892683c-7.492683 0-12.487805 4.995122-12.487805 12.487804s4.995122 12.487805 12.487805 12.487805h109.892683v112.390244c0 7.492683 4.995122 12.487805 12.487805 12.487805s12.487805-4.995122 12.487805-12.487805v-112.390244h109.892683c7.492683 0 12.487805-4.995122 12.487805-12.487805s-3.746341-12.487805-11.239025-12.487804z" fill="#25232E" /></svg>