<?xml version="1.0" standalone="no"?><!DOCTYPE svg PUBLIC "-//W3C//DTD SVG 1.1//EN" "http://www.w3.org/Graphics/SVG/1.1/DTD/svg11.dtd"><svg class="icon" width="200px" height="200.00px" viewBox="0 0 1024 1024" version="1.1" xmlns="http://www.w3.org/2000/svg"><path d="M999.02439 555.707317c0 248.507317-201.053659 449.560976-449.560975 449.560976S99.902439 804.214634 99.902439 555.707317s201.053659-449.560976 449.560976-449.560976 449.560976 201.053659 449.560975 449.560976" fill="#E3EFFF" /><path d="M508.253659 415.843902c-51.2 0-92.409756 41.209756-92.409757 92.409757s41.209756 92.409756 92.409757 92.409756 92.409756-41.209756 92.409756-92.409756c0-21.229268-7.492683-41.209756-18.731708-56.195122L914.107317 119.882927c4.995122-4.995122 4.995122-12.487805 0-17.482927-4.995122-4.995122-12.487805-4.995122-17.482927 0L564.44878 435.82439c-14.985366-12.487805-34.965854-19.980488-56.195121-19.980488z" fill="#25232E" /><path d="M954.068293 338.419512c-2.497561-6.243902-9.990244-9.990244-16.234147-7.492683-6.243902 2.497561-9.990244 9.990244-7.492683 16.234147C951.570732 400.858537 961.560976 455.804878 961.560976 512c0 248.507317-201.053659 449.560976-449.560976 449.560976S62.439024 760.507317 62.439024 512 263.492683 62.439024 512 62.439024c56.195122 0 111.141463 9.990244 163.590244 31.219513 6.243902 2.497561 13.736585-1.24878 16.234146-7.492683 2.497561-6.243902-1.24878-13.736585-7.492683-16.234147C629.385366 48.702439 570.692683 37.463415 512 37.463415 249.756098 37.463415 37.463415 249.756098 37.463415 512s212.292683 474.536585 474.536585 474.536585 474.536585-212.292683 474.536585-474.536585c0-58.692683-11.239024-117.385366-32.468292-173.580488z" fill="#25232E" /></svg>