<?xml version="1.0" standalone="no"?><!DOCTYPE svg PUBLIC "-//W3C//DTD SVG 1.1//EN" "http://www.w3.org/Graphics/SVG/1.1/DTD/svg11.dtd"><svg class="icon" width="200px" height="200.00px" viewBox="0 0 1024 1024" version="1.1" xmlns="http://www.w3.org/2000/svg"><path d="M830.439024 544.468293v132.370731c0 161.092683-129.873171 292.214634-288.468292 292.214635-159.843902 0-288.468293-131.121951-288.468293-292.214635V543.219512l576.936585 1.248781z" fill="#E3EFFF" /><path d="M842.926829 469.541463h-661.853658c-3.746341 0-6.243902 1.24878-8.741464 3.746342-2.497561 2.497561-3.746341 4.995122-3.746341 8.741463v152.35122C168.585366 824.195122 322.185366 980.292683 512 980.292683S855.414634 824.195122 855.414634 633.131707V482.029268c0-7.492683-4.995122-12.487805-12.487805-12.487805z m-12.487805 163.590244c0 177.326829-142.360976 322.185366-318.439024 322.185366S193.560976 810.458537 193.560976 633.131707V493.268293h636.878048v139.863414zM300.956098 372.136585c7.492683 0 12.487805-4.995122 12.487804-12.487805v-91.160975c0-109.892683 88.663415-199.804878 198.556098-199.804878s198.556098 89.912195 198.556098 199.804878v91.160975c0 7.492683 4.995122 12.487805 12.487804 12.487805s12.487805-4.995122 12.487805-12.487805v-91.160975c0-123.629268-99.902439-224.780488-223.531707-224.780488s-223.531707 101.15122-223.531707 224.780488v91.160975c0 7.492683 6.243902 12.487805 12.487805 12.487805z" fill="#25232E" /><path d="M512 797.970732c7.492683 0 12.487805-4.995122 12.487805-12.487805v-121.131707c0-7.492683-4.995122-12.487805-12.487805-12.487805s-12.487805 4.995122-12.487805 12.487805v121.131707c0 6.243902 4.995122 12.487805 12.487805 12.487805z" fill="#25232E" /></svg>