<?xml version="1.0" standalone="no"?><!DOCTYPE svg PUBLIC "-//W3C//DTD SVG 1.1//EN" "http://www.w3.org/Graphics/SVG/1.1/DTD/svg11.dtd"><svg class="icon" width="200px" height="200.00px" viewBox="0 0 1024 1024" version="1.1" xmlns="http://www.w3.org/2000/svg"><path d="M1010.263415 394.614634v-34.965854c0-73.678049-59.941463-132.370732-132.370732-132.370731H232.273171C158.595122 227.278049 99.902439 287.219512 99.902439 359.64878v28.721952c53.697561 19.980488 91.160976 71.180488 91.160976 131.121951s-37.463415 111.141463-91.160976 131.121951v139.863415c0 73.678049 59.941463 132.370732 132.370732 132.370731h645.619512c73.678049 0 132.370732-59.941463 132.370732-132.370731V645.619512c-46.204878-23.726829-77.42439-69.931707-77.424391-124.878049s32.468293-102.4 77.424391-126.126829z" fill="#E3EFFF" /><path d="M710.556098 265.990244c-7.492683 0-12.487805 4.995122-12.487805 12.487805v465.795122c0 7.492683 4.995122 12.487805 12.487805 12.487805s12.487805-4.995122 12.487804-12.487805V278.478049c0-6.243902-6.243902-12.487805-12.487804-12.487805z" fill="#25232E" /><path d="M1016.507317 390.868293c3.746341-2.497561 6.243902-6.243902 6.243903-11.239025V244.760976C1022.75122 164.839024 957.814634 99.902439 877.892683 99.902439H146.107317C66.185366 99.902439 1.24878 164.839024 1.24878 244.760976v128.62439c0 4.995122 3.746341 9.990244 7.492683 11.239024 51.2 18.731707 83.668293 66.185366 83.668293 119.882927S59.941463 605.658537 8.741463 624.390244c-4.995122 1.24878-7.492683 6.243902-7.492683 11.239024v139.863415c0 79.921951 64.936585 144.858537 144.858537 144.858537h731.785366c79.921951 0 144.858537-64.936585 144.858537-144.858537V630.634146c0-4.995122-2.497561-8.741463-6.243903-11.239024-43.707317-22.478049-71.180488-66.185366-71.180488-114.887805 0-47.453659 27.473171-91.160976 71.180488-113.639024z m-96.156097 114.887805c0 54.946341 29.970732 104.897561 77.42439 132.370731v138.614634c0 66.185366-53.697561 119.882927-119.882927 119.882927H146.107317c-66.185366 0-119.882927-53.697561-119.882927-119.882927V645.619512c56.195122-24.97561 91.160976-78.673171 91.160976-139.863414s-34.965854-114.887805-91.160976-139.863415v-119.882927c0-66.185366 53.697561-119.882927 119.882927-119.882927h731.785366c66.185366 0 119.882927 53.697561 119.882927 119.882927v127.37561c-47.453659 26.22439-77.42439 77.42439-77.42439 132.370732z" fill="#25232E" /></svg>