<?xml version="1.0" standalone="no"?><!DOCTYPE svg PUBLIC "-//W3C//DTD SVG 1.1//EN" "http://www.w3.org/Graphics/SVG/1.1/DTD/svg11.dtd"><svg class="icon" width="200px" height="200.00px" viewBox="0 0 1024 1024" version="1.1" xmlns="http://www.w3.org/2000/svg"><path d="M870.4 194.809756c63.687805 0 116.136585 46.204878 116.136585 103.648781v520.741463c0 57.443902-51.2 103.64878-116.136585 103.64878h-636.878049c-63.687805 0-116.136585-46.204878-116.136585-103.64878V298.458537c0-57.443902 51.2-103.64878 116.136585-103.648781h636.878049z" fill="#E3EFFF" /><path d="M860.409756 87.414634H163.590244C87.414634 87.414634 24.97561 146.107317 24.97561 217.287805v588.17561C24.97561 877.892683 87.414634 936.585366 163.590244 936.585366h695.570732C936.585366 936.585366 999.02439 877.892683 999.02439 806.712195V217.287805C999.02439 146.107317 936.585366 87.414634 860.409756 87.414634zM974.04878 806.712195c0 57.443902-51.2 104.897561-113.639024 104.897561H163.590244c-62.439024 0-113.639024-47.453659-113.639024-104.897561V217.287805C49.95122 159.843902 101.15122 112.390244 163.590244 112.390244h695.570732c62.439024 0 113.639024 47.453659 113.639024 104.897561v589.42439z" fill="#25232E" /><path d="M407.102439 348.409756H203.55122c-7.492683 0-12.487805 4.995122-12.487805 12.487805s4.995122 12.487805 12.487805 12.487805h203.551219c7.492683 0 12.487805-4.995122 12.487805-12.487805s-4.995122-12.487805-12.487805-12.487805zM407.102439 520.741463H203.55122c-7.492683 0-12.487805 4.995122-12.487805 12.487805s4.995122 12.487805 12.487805 12.487805h203.551219c7.492683 0 12.487805-4.995122 12.487805-12.487805s-4.995122-12.487805-12.487805-12.487805zM353.404878 691.82439H197.307317c-7.492683 0-12.487805 4.995122-12.487805 12.487805s4.995122 12.487805 12.487805 12.487805h157.346342c7.492683 0 12.487805-4.995122 12.487804-12.487805s-6.243902-12.487805-13.736585-12.487805zM733.034146 541.970732c28.721951-18.731707 47.453659-51.2 47.453659-87.414634 0-57.443902-47.453659-104.897561-104.897561-104.897561-57.443902 0-104.897561 47.453659-104.897561 104.897561 0 37.463415 19.980488 69.931707 48.702439 88.663414-72.429268 18.731707-122.380488 76.17561-138.614634 161.092683-1.24878 6.243902 3.746341 13.736585 9.990244 14.985366 6.243902 1.24878 13.736585-3.746341 14.985366-9.990244 18.731707-96.156098 79.921951-148.604878 172.331707-148.604878s153.6 52.44878 172.331707 148.604878c1.24878 6.243902 6.243902 9.990244 12.487805 9.990244h2.497561c6.243902-1.24878 11.239024-7.492683 9.990244-14.985366-16.234146-87.414634-67.434146-144.858537-142.360976-162.341463z m-137.365853-88.663415c0-43.707317 36.214634-79.921951 79.921951-79.921951 43.707317 0 79.921951 36.214634 79.921951 79.921951 0 43.707317-36.214634 79.921951-79.921951 79.921951-43.707317 0-79.921951-34.965854-79.921951-79.921951z" fill="#25232E" /></svg>