<?xml version="1.0" standalone="no"?><!DOCTYPE svg PUBLIC "-//W3C//DTD SVG 1.1//EN" "http://www.w3.org/Graphics/SVG/1.1/DTD/svg11.dtd"><svg class="icon" width="200px" height="200.00px" viewBox="0 0 1024 1024" version="1.1" xmlns="http://www.w3.org/2000/svg"><path d="M137.365854 876.643902s194.809756-26.22439 405.853658-163.590243S886.634146 414.595122 886.634146 414.595122v575.687805H137.365854v-113.639025z" fill="#E3EFFF" /><path d="M934.087805 176.078049L906.614634 43.707317c-1.24878-3.746341-3.746341-6.243902-6.243902-8.741463-2.497561-2.497561-6.243902-2.497561-9.990244-1.248781l-123.629268 36.214634c-6.243902 2.497561-9.990244 8.741463-8.741464 14.985366 1.24878 4.995122 6.243902 8.741463 12.487805 8.741464h3.746341l91.160976-27.473171c-3.746341 8.741463-8.741463 18.731707-13.736585 27.473171C701.814634 395.863415 420.839024 608.156098 99.902439 663.102439c-6.243902 1.24878-11.239024 7.492683-9.990244 14.985366 1.24878 6.243902 6.243902 9.990244 12.487805 9.990244h2.497561C432.078049 631.882927 720.546341 414.595122 874.146341 106.146341c4.995122-8.741463 8.741463-18.731707 13.736586-27.47317l21.229268 102.4c1.24878 6.243902 6.243902 9.990244 12.487805 9.990244h2.497561c7.492683-2.497561 11.239024-8.741463 9.990244-14.985366z m-49.95122-114.887805c1.24878 1.24878 0 1.24878 0 0zM886.634146 340.917073c-7.492683 0-12.487805 4.995122-12.487805 12.487805v623.141463c0 7.492683 4.995122 12.487805 12.487805 12.487805s12.487805-4.995122 12.487805-12.487805V353.404878c0-6.243902-6.243902-12.487805-12.487805-12.487805zM636.878049 584.429268c-7.492683 0-12.487805 4.995122-12.487805 12.487805v379.629268c0 7.492683 4.995122 12.487805 12.487805 12.487805s12.487805-4.995122 12.487805-12.487805V596.917073c0-6.243902-6.243902-12.487805-12.487805-12.487805zM387.121951 734.282927c-7.492683 0-12.487805 4.995122-12.487805 12.487805v229.775609c0 7.492683 4.995122 12.487805 12.487805 12.487805s12.487805-4.995122 12.487805-12.487805V746.770732c0-7.492683-4.995122-12.487805-12.487805-12.487805zM137.365854 815.453659c-7.492683 0-12.487805 4.995122-12.487805 12.487804v148.604878c0 7.492683 4.995122 12.487805 12.487805 12.487805s12.487805-4.995122 12.487805-12.487805V827.941463c0-7.492683-4.995122-12.487805-12.487805-12.487804z" fill="#25232E" /></svg>