<?xml version="1.0" standalone="no"?><!DOCTYPE svg PUBLIC "-//W3C//DTD SVG 1.1//EN" "http://www.w3.org/Graphics/SVG/1.1/DTD/svg11.dtd"><svg class="icon" width="200px" height="200.00px" viewBox="0 0 1024 1024" version="1.1" xmlns="http://www.w3.org/2000/svg"><path d="M771.746341 209.795122H300.956098c-48.702439 0-87.414634 39.960976-87.414635 88.663415v580.682926c0 48.702439 38.712195 88.663415 87.414635 88.663415h499.512195c48.702439 0 87.414634-39.960976 87.414634-88.663415V298.458537c0-48.702439-38.712195-88.663415-87.414634-88.663415h-49.95122" fill="#E3EFFF" /><path d="M791.726829 122.380488h-56.195122c-7.492683 0-12.487805 4.995122-12.487805 12.487805s4.995122 12.487805 12.487805 12.487805h56.195122c46.204878 0 84.917073 38.712195 84.917073 86.165853V874.146341c0 47.453659-37.463415 86.165854-84.917073 86.165854H232.273171c-46.204878 0-84.917073-38.712195-84.917073-86.165854V233.521951c0-47.453659 37.463415-86.165854 84.917073-86.165853h56.195122c7.492683 0 12.487805-4.995122 12.487805-12.487805s-4.995122-12.487805-12.487805-12.487805h-56.195122c-61.190244 0-109.892683 49.95122-109.892683 111.141463V874.146341c0 61.190244 48.702439 111.141463 109.892683 111.141464h558.204878c59.941463 0 109.892683-49.95122 109.892683-111.141464V233.521951c0-61.190244-48.702439-111.141463-108.643903-111.141463z" fill="#25232E" /><path d="M387.121951 147.356098h249.756098c7.492683 0 12.487805-4.995122 12.487805-12.487805s-4.995122-12.487805-12.487805-12.487805h-32.468293V82.419512c0-23.726829-18.731707-43.707317-42.458536-43.707317h-97.404879c-23.726829 0-42.458537 19.980488-42.458536 43.707317v39.960976H387.121951c-7.492683 0-12.487805 4.995122-12.487805 12.487805s6.243902 12.487805 12.487805 12.487805z m58.692683-64.936586c0-9.990244 7.492683-18.731707 17.482927-18.731707h97.404878c9.990244 0 17.482927 8.741463 17.482927 18.731707v39.960976H445.814634V82.419512zM634.380488 478.282927c7.492683 0 12.487805-4.995122 12.487805-12.487805s-4.995122-12.487805-12.487805-12.487805H536.97561l82.419512-102.4c3.746341-4.995122 3.746341-13.736585-2.497561-17.482927-4.995122-3.746341-13.736585-3.746341-17.482927 2.497561l-87.414634 111.141464-88.663415-109.892683c-3.746341-4.995122-12.487805-6.243902-17.482926-2.497561-4.995122 3.746341-6.243902 12.487805-2.497561 17.482927l82.419512 102.4h-97.404878c-7.492683 0-12.487805 4.995122-12.487805 12.487804s4.995122 12.487805 12.487805 12.487805H499.512195v98.653659h-109.892683c-7.492683 0-12.487805 4.995122-12.487805 12.487805s4.995122 12.487805 12.487805 12.487805H499.512195v111.141463c0 7.492683 4.995122 12.487805 12.487805 12.487805s12.487805-4.995122 12.487805-12.487805v-111.141463h109.892683c7.492683 0 12.487805-4.995122 12.487805-12.487805s-4.995122-12.487805-12.487805-12.487805H524.487805v-98.653659h109.892683z" fill="#25232E" /></svg>