<?xml version="1.0" standalone="no"?><!DOCTYPE svg PUBLIC "-//W3C//DTD SVG 1.1//EN" "http://www.w3.org/Graphics/SVG/1.1/DTD/svg11.dtd"><svg class="icon" width="200px" height="200.00px" viewBox="0 0 1024 1024" version="1.1" xmlns="http://www.w3.org/2000/svg"><path d="M555.707317 430.829268m-318.439024 0a318.439024 318.439024 0 1 0 636.878048 0 318.439024 318.439024 0 1 0-636.878048 0Z" fill="#E3EFFF" /><path d="M512 227.278049c-88.663415 0-161.092683 72.429268-161.092683 159.843902S423.336585 548.214634 512 548.214634c88.663415 0 161.092683-72.429268 161.092683-159.843902S600.663415 227.278049 512 227.278049z m0 295.960975c-74.926829 0-136.117073-61.190244-136.117073-134.868292S437.073171 252.253659 512 252.253659 648.117073 313.443902 648.117073 387.121951 586.926829 523.239024 512 523.239024z" fill="#272536" /><path d="M920.35122 859.160976L801.717073 574.439024s0-1.24878-1.24878-1.24878c34.965854-53.697561 56.195122-117.385366 56.195122-186.068293C856.663415 198.556098 701.814634 46.204878 512 46.204878 322.185366 46.204878 167.336585 198.556098 167.336585 387.121951c0 66.185366 18.731707 128.62439 52.448781 181.073171-2.497561 1.24878-4.995122 3.746341-6.243903 6.243902L103.64878 859.160976c-1.24878 3.746341-1.24878 8.741463 1.248781 11.239024 2.497561 3.746341 6.243902 6.243902 9.990244 4.995122l143.609756-1.248781 101.151219 101.15122c2.497561 2.497561 4.995122 3.746341 8.741464 3.746341h2.497561c3.746341-1.24878 7.492683-3.746341 8.741463-7.492682l93.658537-243.512196c12.487805 1.24878 26.22439 2.497561 38.712195 2.497561 14.985366 0 28.721951-1.24878 42.458537-2.497561l89.912195 243.512196c1.24878 3.746341 4.995122 7.492683 8.741463 7.492682h2.497561c3.746341 0 6.243902-1.24878 8.741464-3.746341l101.151219-101.15122 143.609756 2.497561c3.746341 0 8.741463-2.497561 9.990244-4.995122 2.497561-3.746341 2.497561-8.741463 1.248781-12.487804z m-556.956098 83.668292l-91.160976-91.160975c-2.497561-2.497561-6.243902-3.746341-8.741463-3.746342l-129.873171 2.497561 101.15122-260.995122c51.2 68.682927 126.126829 117.385366 213.541463 133.619512l-84.917073 219.785366zM192.312195 387.121951C192.312195 212.292683 335.921951 71.180488 512 71.180488 688.078049 71.180488 831.687805 212.292683 831.687805 387.121951S688.078049 704.312195 512 704.312195C335.921951 704.312195 192.312195 561.95122 192.312195 387.121951z m568.195122 462.048781c-3.746341 0-6.243902 1.24878-8.741463 3.746341L661.853659 944.078049 580.682927 724.292683c82.419512-16.234146 154.84878-62.439024 204.8-124.878049l106.146341 253.502439-131.121951-3.746341z" fill="#272536" /></svg>