<?xml version="1.0" standalone="no"?><!DOCTYPE svg PUBLIC "-//W3C//DTD SVG 1.1//EN" "http://www.w3.org/Graphics/SVG/1.1/DTD/svg11.dtd"><svg class="icon" width="200px" height="200.00px" viewBox="0 0 1024 1024" version="1.1" xmlns="http://www.w3.org/2000/svg"><path d="M1004.019512 308.44878c0-66.185366-53.697561-118.634146-119.882927-118.634146H227.278049c-66.185366 0-119.882927 53.697561-119.882927 118.634146v475.785366c0 66.185366 53.697561 118.634146 119.882927 118.634147h656.858536c66.185366 0 119.882927-53.697561 119.882927-118.634147V308.44878z" fill="#E3EFFF" /><path d="M573.190244 535.726829H179.82439c-7.492683 0-12.487805 4.995122-12.487805 12.487805s4.995122 12.487805 12.487805 12.487805h393.365854c7.492683 0 12.487805-4.995122 12.487805-12.487805s-6.243902-12.487805-12.487805-12.487805zM573.190244 675.590244H179.82439c-7.492683 0-12.487805 4.995122-12.487805 12.487805s4.995122 12.487805 12.487805 12.487805h393.365854c7.492683 0 12.487805-4.995122 12.487805-12.487805s-6.243902-12.487805-12.487805-12.487805zM844.17561 535.726829H749.268293c-7.492683 0-12.487805 4.995122-12.487805 12.487805s4.995122 12.487805 12.487805 12.487805h94.907317c7.492683 0 12.487805-4.995122 12.487805-12.487805s-4.995122-12.487805-12.487805-12.487805z" fill="#25232E" /><path d="M872.897561 107.395122H151.102439C72.429268 107.395122 7.492683 171.082927 7.492683 251.004878V774.243902c0 78.673171 64.936585 143.609756 143.609756 143.609757h720.546341c78.673171 0 143.609756-63.687805 143.609757-143.609757V251.004878c1.24878-79.921951-63.687805-143.609756-142.360976-143.609756z m-721.795122 24.97561h720.546341c64.936585 0 118.634146 52.44878 118.634147 118.634146v62.439024H32.468293v-62.439024c0-66.185366 53.697561-118.634146 118.634146-118.634146z m721.795122 759.258536H151.102439c-64.936585 0-118.634146-52.44878-118.634146-118.634146V338.419512h957.814634v434.57561c1.24878 66.185366-52.44878 118.634146-117.385366 118.634146z" fill="#25232E" /></svg>