<?xml version="1.0" standalone="no"?><!DOCTYPE svg PUBLIC "-//W3C//DTD SVG 1.1//EN" "http://www.w3.org/Graphics/SVG/1.1/DTD/svg11.dtd"><svg class="icon" width="200px" height="200.00px" viewBox="0 0 1024 1024" version="1.1" xmlns="http://www.w3.org/2000/svg"><path fill="#333333" d="M819.2 339.668293c-42.458537-54.946341-152.35122-104.897561-152.35122-139.863415 0-62.439024 39.960976-74.926829 62.439025-97.404878 14.985366-14.985366 24.97561-29.970732 24.97561-49.95122 0-17.482927-12.487805-32.468293-29.970732-34.965853-4.995122 0-77.42439-17.482927-212.292683-17.482927S304.702439 17.482927 299.707317 17.482927c-17.482927 2.497561-29.970732 17.482927-29.970732 32.468293 0 19.980488 9.990244 37.463415 24.97561 49.951219 22.478049 24.97561 62.439024 34.965854 62.439025 97.404878 0 34.965854-112.390244 84.917073-154.848781 139.863415C137.365854 429.580488 74.926829 541.970732 74.926829 691.82439c0 112.390244 42.458537 209.795122 129.873171 259.746342 79.921951 44.956098 187.317073 72.429268 307.2 72.429268s229.77561-24.97561 307.2-72.429268c84.917073-52.44878 129.873171-149.853659 129.873171-259.746342 0-149.853659-64.936585-262.243902-129.873171-352.156097z m-154.84878 292.214634c19.980488 0 34.965854 14.985366 34.965853 34.965853 0 19.980488-14.985366 34.965854-34.965853 34.965854h-117.385366v117.385366c0 19.980488-14.985366 34.965854-34.965854 34.965854-19.980488 0-34.965854-14.985366-34.965854-34.965854v-117.385366h-117.385366c-19.980488 0-34.965854-14.985366-34.965853-34.965854 0-19.980488 14.985366-34.965854 34.965853-34.965853H474.536585V549.463415h-117.385365c-19.980488 0-34.965854-14.985366-34.965854-34.965854s14.985366-34.965854 34.965854-34.965854h79.921951l-77.424391-94.907317c-12.487805-14.985366-9.990244-37.463415 4.995122-49.951219 14.985366-12.487805 37.463415-9.990244 49.95122 4.995122l94.907317 117.385366 94.907317-117.385366c12.487805-14.985366 34.965854-17.482927 49.95122-4.995122 14.985366 12.487805 17.482927 34.965854 4.995122 49.951219l-77.424391 94.907317h79.921952c19.980488 0 34.965854 14.985366 34.965853 34.965854s-14.985366 34.965854-34.965853 34.965854h-117.385366v82.419512h119.882927z"  /></svg>