<?xml version="1.0" standalone="no"?><!DOCTYPE svg PUBLIC "-//W3C//DTD SVG 1.1//EN" "http://www.w3.org/Graphics/SVG/1.1/DTD/svg11.dtd"><svg class="icon" width="200px" height="163.58px" viewBox="0 0 1252 1024" version="1.1" xmlns="http://www.w3.org/2000/svg"><path fill="#333333" d="M543.188589 626.968664a34.958734 27.467577 90 1 0 54.935154 0 34.958734 27.467577 90 1 0-54.935154 0Z"  /><path fill="#333333" d="M658.053001 626.968664a34.958734 27.467577 90 1 0 54.935153 0 34.958734 27.467577 90 1 0-54.935153 0Z"  /><path fill="#333333" d="M1244.860322 512.104252c-9.98821-57.432206-29.964629-112.367359-54.935154-162.308408-2.497052-47.443996-12.485262-104.876202-17.479367-129.846726C1127.498858 0.208504 932.728768 7.699661 880.290667 30.173133c-7.491157 2.497052-9.98821 12.485262-12.485262 24.970524C792.893832 22.681976 710.491102 2.705556 628.088372 0.208504c-77.408625-2.497052-162.308408 17.479367-244.711138 57.432206 0-14.982315-4.994105-24.970524-12.485262-27.467577C318.453871 7.699661 138.666096 5.202609 78.736837 219.949118c-7.491157 27.467577-17.479367 92.39094-19.976419 139.834936-24.970524 47.443996-42.449891 97.385045-52.438101 149.823146-49.941049 274.675767 199.764194 511.895748 616.77195 511.895748 424.498913 2.497052 674.204156-234.722928 621.766055-509.398696z m-776.583306 129.846726c12.485262-87.396835 72.41452-144.829041 159.811356-144.829041s147.326093 64.923363 159.811355 144.829041c12.485262 79.905678-32.461682 144.829041-159.811355 144.829041-122.355569 0-172.296618-64.923363-159.811356-144.829041z m-122.355569-277.172819c0-37.455786 24.970524-69.917468 57.432206-69.917468 32.461682 0 57.432206 32.461682 57.432206 69.917468 0 37.455786-24.970524 69.917468-57.432206 69.917468-32.461682 0-57.432206-29.964629-57.432206-69.917468z m509.398696 69.917468c-32.461682 0-57.432206-32.461682-57.432206-69.917468 0-37.455786 24.970524-69.917468 57.432206-69.917468 32.461682 0 57.432206 32.461682 57.432206 69.917468 0 39.952839-27.467577 69.917468-57.432206 69.917468z"  /></svg>