<?xml version="1.0" standalone="no"?><!DOCTYPE svg PUBLIC "-//W3C//DTD SVG 1.1//EN" "http://www.w3.org/Graphics/SVG/1.1/DTD/svg11.dtd"><svg class="icon" width="200px" height="200.00px" viewBox="0 0 1024 1024" version="1.1" xmlns="http://www.w3.org/2000/svg"><path d="M961.560976 420.839024v-162.341463c0-59.941463-48.702439-108.643902-108.643903-108.643902H258.497561c-59.941463 0-108.643902 48.702439-108.643902 108.643902v595.668293c0 59.941463 48.702439 108.643902 108.643902 108.643902h595.668293c59.941463 0 108.643902-48.702439 108.643902-108.643902V609.404878" fill="#E3EFFF" /><path d="M777.990244 601.912195c0-7.492683-4.995122-12.487805-12.487805-12.487805H258.497561 254.75122c-1.24878 0-1.24878 0-2.497561 1.248781-1.24878 0-1.24878 1.24878-2.497561 1.24878s-1.24878 1.24878-2.497561 1.248781c0 0 0 1.24878-1.248781 1.24878 0 1.24878-1.24878 1.24878-1.24878 2.497561V604.409756c0 1.24878 0 1.24878 1.24878 2.497561l1.248781 1.248781c0 1.24878 1.24878 1.24878 1.24878 2.497561l131.121951 102.4c2.497561 1.24878 4.995122 2.497561 7.492683 2.497561 3.746341 0 7.492683-1.24878 9.990244-4.995122 3.746341-4.995122 3.746341-13.736585-2.497561-17.482927l-102.4-79.921951h470.790244c9.990244 1.24878 14.985366-3.746341 14.985366-11.239025zM777.990244 423.336585v-1.24878-1.248781-2.497561c0-1.24878 0-1.24878-1.248781-2.497561l-1.24878-1.24878c0-1.24878-1.24878-1.24878-1.248781-2.497561l-131.121951-102.4c-6.243902-4.995122-13.736585-3.746341-18.731707 2.497561-3.746341 4.995122-3.746341 13.736585 2.497561 17.482927l102.4 79.921951H258.497561c-7.492683 0-12.487805 4.995122-12.487805 12.487805s4.995122 12.487805 12.487805 12.487805h507.004878c1.24878 0 3.746341 0 4.995122-1.248781 0 0 1.24878 0 1.24878-1.24878 1.24878-1.24878 2.497561-1.24878 2.497561-2.497561 0 0 0-1.24878 1.248781-1.248781 0-1.24878 1.24878-1.24878 1.24878-2.497561 1.24878 0 1.24878-1.24878 1.248781-2.497561z" fill="#25232E" /><path d="M961.560976 374.634146c7.492683 0 12.487805-4.995122 12.487804-12.487805V182.321951C974.04878 109.892683 914.107317 49.95122 841.678049 49.95122H182.321951C109.892683 49.95122 49.95122 109.892683 49.95122 182.321951v659.356098C49.95122 914.107317 109.892683 974.04878 182.321951 974.04878h659.356098C914.107317 974.04878 974.04878 914.107317 974.04878 841.678049V571.941463c0-7.492683-4.995122-12.487805-12.487804-12.487804s-12.487805 4.995122-12.487805 12.487804v269.736586c0 58.692683-48.702439 107.395122-107.395122 107.395122H182.321951C123.629268 949.073171 74.926829 900.370732 74.926829 841.678049V182.321951C74.926829 123.629268 123.629268 74.926829 182.321951 74.926829h659.356098c58.692683 0 107.395122 48.702439 107.395122 107.395122V362.146341c0 7.492683 4.995122 12.487805 12.487805 12.487805z" fill="#25232E" /></svg>