<?xml version="1.0" standalone="no"?><!DOCTYPE svg PUBLIC "-//W3C//DTD SVG 1.1//EN" "http://www.w3.org/Graphics/SVG/1.1/DTD/svg11.dtd"><svg class="icon" width="200px" height="200.00px" viewBox="0 0 1024 1024" version="1.1" xmlns="http://www.w3.org/2000/svg"><path d="M827.941463 974.04878H280.97561c-59.941463 0-108.643902-49.95122-108.643903-111.141463V253.502439c0-61.190244 48.702439-111.141463 108.643903-111.141463h545.717073c59.941463 0 108.643902 49.95122 108.643902 111.141463v609.404878C936.585366 924.097561 887.882927 974.04878 827.941463 974.04878z" fill="#E3EFFF" /><path d="M569.443902 521.990244c34.965854-21.229268 57.443902-59.941463 57.443903-103.648781 0-66.185366-53.697561-119.882927-118.634146-119.882926s-118.634146 53.697561-118.634147 119.882926c0 44.956098 23.726829 83.668293 59.941464 104.897561-84.917073 21.229268-143.609756 87.414634-162.341464 187.317074-1.24878 6.243902 3.746341 13.736585 9.990244 14.985365 6.243902 1.24878 13.736585-3.746341 14.985366-9.990243 21.229268-112.390244 92.409756-174.829268 199.804878-174.829269s178.57561 62.439024 199.804878 174.829269c1.24878 6.243902 6.243902 9.990244 12.487805 9.990243h2.497561c6.243902-1.24878 11.239024-7.492683 9.990244-14.985365-19.980488-102.4-79.921951-168.585366-167.336586-188.565854z m-154.84878-103.648781c0-52.44878 42.458537-94.907317 93.658537-94.907317s93.658537 42.458537 93.658536 94.907317-42.458537 94.907317-93.658536 94.907317-93.658537-42.458537-93.658537-94.907317z" fill="#25232E" /><path d="M815.453659 37.463415H208.546341C134.868293 37.463415 74.926829 98.653659 74.926829 173.580488v678.087805c0 74.926829 59.941463 136.117073 133.619512 136.117073h606.907318c73.678049-1.24878 133.619512-62.439024 133.619512-137.365854V173.580488C949.073171 98.653659 889.131707 37.463415 815.453659 37.463415zM924.097561 850.419512c0 61.190244-48.702439 111.141463-108.643902 111.141464H208.546341C148.604878 961.560976 99.902439 911.609756 99.902439 850.419512V173.580488C99.902439 112.390244 148.604878 62.439024 208.546341 62.439024h606.907318c59.941463 0 108.643902 49.95122 108.643902 111.141464v676.839024z" fill="#25232E" /></svg>