<?xml version="1.0" standalone="no"?><!DOCTYPE svg PUBLIC "-//W3C//DTD SVG 1.1//EN" "http://www.w3.org/Graphics/SVG/1.1/DTD/svg11.dtd"><svg class="icon" width="200px" height="200.00px" viewBox="0 0 1024 1024" version="1.1" xmlns="http://www.w3.org/2000/svg"><path d="M174.829268 312.195122c0-68.682927 56.195122-124.878049 124.878049-124.878049h536.97561c68.682927 0 124.878049 56.195122 124.878049 124.878049v524.487805c0 68.682927-56.195122 124.878049-124.878049 124.878049H299.707317c-68.682927 0-124.878049-56.195122-124.878049-124.878049V312.195122z" fill="#E3EFFF" /><path d="M974.04878 191.063415C974.04878 119.882927 914.107317 62.439024 841.678049 62.439024H182.321951C109.892683 62.439024 49.95122 119.882927 49.95122 191.063415v640.62439C49.95122 904.117073 109.892683 961.560976 182.321951 961.560976h659.356098C914.107317 961.560976 974.04878 904.117073 974.04878 832.936585v-56.195122c0-7.492683-4.995122-12.487805-12.487804-12.487804s-12.487805 4.995122-12.487805 12.487804v56.195122c0 57.443902-48.702439 103.64878-107.395122 103.648781H182.321951C123.629268 936.585366 74.926829 890.380488 74.926829 832.936585V191.063415C74.926829 133.619512 123.629268 87.414634 182.321951 87.414634h659.356098c58.692683 0 107.395122 46.204878 107.395122 103.648781v56.195122c0 7.492683 4.995122 12.487805 12.487805 12.487804s12.487805-4.995122 12.487804-12.487804v-56.195122z" fill="#25232E" /><path d="M347.160976 524.487805c0 89.912195 72.429268 162.341463 162.341463 162.341463h462.048781V362.146341h-462.048781c-89.912195 0-162.341463 72.429268-162.341463 162.341464z m599.414634 137.365854h-437.073171c-76.17561 0-137.365854-61.190244-137.365854-137.365854s61.190244-137.365854 137.365854-137.365854h437.073171v274.731708z" fill="#25232E" /><path d="M512 524.487805m-59.941463 0a59.941463 59.941463 0 1 0 119.882926 0 59.941463 59.941463 0 1 0-119.882926 0Z" fill="#25232E" /></svg>