<?xml version="1.0" standalone="no"?><!DOCTYPE svg PUBLIC "-//W3C//DTD SVG 1.1//EN" "http://www.w3.org/Graphics/SVG/1.1/DTD/svg11.dtd"><svg class="icon" width="200px" height="200.00px" viewBox="0 0 1024 1024" version="1.1" xmlns="http://www.w3.org/2000/svg"><path d="M325.931707 364.643902a218.536585 217.287805 90 1 0 434.57561 0 218.536585 217.287805 90 1 0-434.57561 0Z" fill="#E3EFFF" /><path d="M754.263415 621.892683c3.746341-6.243902 1.24878-13.736585-4.995122-17.482927-54.946341-31.219512-116.136585-51.2-179.824391-58.692683C659.356098 513.24878 724.292683 428.331707 724.292683 327.180488 724.292683 199.804878 620.643902 96.156098 493.268293 96.156098S263.492683 199.804878 263.492683 327.180488c0 104.897561 69.931707 193.560976 166.087805 222.282927-186.068293 32.468293-337.170732 172.331707-380.878049 362.146341-1.24878 6.243902 2.497561 13.736585 8.741463 14.985366h2.497561c6.243902 0 11.239024-3.746341 12.487805-9.990244 47.453659-206.04878 228.526829-349.658537 439.570732-349.658537 78.673171 0 156.097561 19.980488 223.531707 58.692683 7.492683 3.746341 14.985366 1.24878 18.731708-3.746341zM288.468293 327.180488c0-113.639024 92.409756-206.04878 204.8-206.048781S699.317073 213.541463 699.317073 327.180488s-92.409756 206.04878-204.8 206.04878-206.04878-92.409756-206.04878-206.04878zM962.809756 779.239024h-111.141463v-111.141463c0-7.492683-4.995122-12.487805-12.487805-12.487805s-12.487805 4.995122-12.487805 12.487805v111.141463h-111.141463c-7.492683 0-12.487805 4.995122-12.487805 12.487805s4.995122 12.487805 12.487805 12.487805h111.141463v111.141464c0 7.492683 4.995122 12.487805 12.487805 12.487804s12.487805-4.995122 12.487805-12.487804v-111.141464h111.141463c7.492683 0 12.487805-4.995122 12.487805-12.487805s-6.243902-12.487805-12.487805-12.487805z" fill="#25232E" /></svg>